<svg width="56" height="54" viewBox="0 0 56 54" fill="none" xmlns="http://www.w3.org/2000/svg">
<path d="M29.3366 29.8335H22.7084V34.4166H29.3366V29.8335Z" fill="white"/>
<path d="M21.0419 21.5002H16.4589V28.1665H21.0419V21.5002Z" fill="white"/>
<path d="M21.0419 36.083H16.4589V42.7493H21.0419V36.083Z" fill="white"/>
<path d="M46.2974 4H3.70415C2.72175 4 1.77959 4.39026 1.08492 5.08492C0.390258 5.77959 0 6.72175 0 7.70415L0 50.2958C0 50.7823 0.0958108 51.264 0.281962 51.7134C0.468113 52.1628 0.740959 52.5711 1.08492 52.9151C1.42888 53.259 1.83723 53.5319 2.28664 53.718C2.73604 53.9042 3.21772 54 3.70415 54H46.2974C46.7837 54 47.2653 53.9042 47.7147 53.718C48.164 53.5318 48.5722 53.259 48.9161 52.915C49.2599 52.571 49.5326 52.1626 49.7186 51.7132C49.9046 51.2638 50.0002 50.7822 50 50.2958V7.70415C50 6.72201 49.6099 5.78008 48.9156 5.08546C48.2213 4.39084 47.2795 4.0004 46.2974 4V4ZM37.2924 20.6672C37.292 20.8881 37.2041 21.0998 37.0479 21.2559C36.8917 21.4121 36.68 21.5001 36.4592 21.5005H22.7085V28.1667H30.17C30.391 28.1667 30.6029 28.2545 30.7592 28.4108C30.9155 28.567 31.0033 28.779 31.0033 29V35.2496C31.0033 35.4706 30.9155 35.6826 30.7592 35.8388C30.6029 35.9951 30.391 36.0829 30.17 36.0829H22.7085V43.584C22.7085 43.805 22.6207 44.0169 22.4644 44.1732C22.3081 44.3295 22.0962 44.4172 21.8752 44.4172H15.6256C15.4046 44.4172 15.1926 44.3295 15.0363 44.1732C14.8801 44.0169 14.7923 43.805 14.7923 43.584V35.2496C14.7923 35.0286 14.8801 34.8167 15.0363 34.6604C15.1926 34.5041 15.4046 34.4163 15.6256 34.4163H21.0419V29.8333H15.6256C15.4046 29.8333 15.1926 29.7455 15.0363 29.5892C14.8801 29.4329 14.7923 29.221 14.7923 29V20.6672C14.7923 20.4462 14.8801 20.2342 15.0363 20.078C15.1926 19.9217 15.4046 19.8339 15.6256 19.8339H21.0419V14.416C21.0415 14.3063 21.0628 14.1977 21.1045 14.0962C21.1462 13.9948 21.2075 13.9025 21.2849 13.8248C21.3623 13.7471 21.4543 13.6855 21.5556 13.6434C21.6569 13.6014 21.7655 13.5797 21.8752 13.5797H36.4592C36.68 13.5801 36.8917 13.668 37.0479 13.8242C37.2041 13.9804 37.292 14.1921 37.2924 14.413V20.6672Z" fill="white"/>
<path d="M35.6258 15.2493H22.7084V19.8323H35.6258V15.2493Z" fill="white"/>
<path d="M43.3099 14.9704L43.3099 14.9704L55.1199 3.25516C55.6238 2.75533 55.6271 1.94156 55.1272 1.43761C55.1272 1.4376 55.1272 1.43759 55.1272 1.43757L54.5742 0.880094L54.5742 0.880091C54.0743 0.376114 53.2605 0.372958 52.7566 0.872774L52.7566 0.872784L42.4166 11.1299L38.2552 6.93487C38.2552 6.93487 38.2552 6.93486 38.2552 6.93486C37.7553 6.4309 36.9415 6.42774 36.4376 6.92755C36.4376 6.92755 36.4376 6.92755 36.4376 6.92755L35.8801 7.48055L35.8801 7.48056C35.3761 7.98046 35.373 8.79423 35.8728 9.29812L35.8728 9.29813L41.4923 14.9631C41.4923 14.9631 41.4923 14.9631 41.4923 14.9631C41.9922 15.4671 42.806 15.4702 43.3099 14.9704Z" fill="#0ED984" stroke="white"/>
</svg>
