<svg width="329" height="183" viewBox="0 0 329 183" fill="none" xmlns="http://www.w3.org/2000/svg">
<path d="M12 173.448V174.12C12 175.581 11.4987 176.797 10.496 177.768C9.48267 178.728 8.15467 179.208 6.512 179.208C4.80533 179.208 3.392 178.648 2.272 177.528C1.16267 176.387 0.608 175.011 0.608 173.4C0.608 171.789 1.16267 170.419 2.272 169.288C3.392 168.157 4.79467 167.592 6.48 167.592C7.504 167.592 8.45333 167.843 9.328 168.344C10.2133 168.845 10.88 169.496 11.328 170.296L10.048 171.048C9.888 170.749 9.68533 170.477 9.44 170.232C9.19467 169.976 8.912 169.763 8.592 169.592C8.28267 169.411 7.94667 169.272 7.584 169.176C7.22133 169.08 6.848 169.032 6.464 169.032C5.17333 169.032 4.12267 169.453 3.312 170.296C2.49067 171.139 2.08 172.173 2.08 173.4C2.08 174.627 2.49067 175.661 3.312 176.504C4.144 177.336 5.216 177.752 6.528 177.752C7.08267 177.752 7.58933 177.683 8.048 177.544C8.50667 177.395 8.90667 177.192 9.248 176.936C9.58933 176.669 9.86667 176.355 10.08 175.992C10.2933 175.629 10.4373 175.229 10.512 174.792H6.4V173.448H12ZM14.6414 175.64C14.78 176.355 15.1054 176.909 15.6174 177.304C16.1294 177.699 16.7694 177.896 17.5374 177.896C18.5934 177.896 19.3614 177.507 19.8414 176.728L21.0254 177.4C20.236 178.605 19.0627 179.208 17.5054 179.208C16.2467 179.208 15.212 178.813 14.4014 178.024C13.612 177.213 13.2174 176.205 13.2174 175C13.2174 173.784 13.6067 172.781 14.3854 171.992C15.164 171.192 16.172 170.792 17.4094 170.792C18.5827 170.792 19.5374 171.208 20.2734 172.04C21.02 172.851 21.3934 173.843 21.3934 175.016C21.3934 175.229 21.3774 175.437 21.3454 175.64H14.6414ZM17.4094 172.104C16.6627 172.104 16.044 172.317 15.5534 172.744C15.0627 173.16 14.7587 173.72 14.6414 174.424H19.9854C19.868 173.656 19.5694 173.08 19.0894 172.696C18.6094 172.301 18.0494 172.104 17.4094 172.104ZM23.881 173.16C23.881 173.469 24.0303 173.72 24.329 173.912C24.6383 174.093 25.017 174.243 25.465 174.36C25.7743 174.424 26.0997 174.509 26.441 174.616C26.7823 174.723 27.097 174.867 27.385 175.048C27.673 175.229 27.9077 175.464 28.089 175.752C28.2703 176.029 28.361 176.381 28.361 176.808C28.361 177.533 28.0783 178.115 27.513 178.552C26.9477 178.989 26.233 179.208 25.369 179.208C24.5903 179.208 23.9237 179.043 23.369 178.712C22.8143 178.371 22.4197 177.912 22.185 177.336L23.385 176.648C23.513 177.032 23.753 177.336 24.105 177.56C24.457 177.784 24.8783 177.896 25.369 177.896C25.8277 177.896 26.2063 177.811 26.505 177.64C26.8037 177.459 26.953 177.181 26.953 176.808C26.953 176.499 26.7983 176.253 26.489 176.072C26.1903 175.88 25.817 175.731 25.369 175.624C25.049 175.539 24.7183 175.443 24.377 175.336C24.0357 175.229 23.721 175.091 23.433 174.92C23.1557 174.739 22.9263 174.509 22.745 174.232C22.5637 173.955 22.473 173.603 22.473 173.176C22.473 172.483 22.7397 171.912 23.273 171.464C23.817 171.016 24.4943 170.792 25.305 170.792C25.9557 170.792 26.5317 170.941 27.033 171.24C27.545 171.528 27.929 171.933 28.185 172.456L27.017 173.112C26.729 172.429 26.1583 172.088 25.305 172.088C24.9103 172.088 24.5743 172.184 24.297 172.376C24.0197 172.557 23.881 172.819 23.881 173.16ZM34.0486 172.344H31.9206V176.68C31.9206 176.989 31.9633 177.224 32.0486 177.384C32.1446 177.533 32.278 177.64 32.4486 177.704C32.63 177.768 32.854 177.8 33.1206 177.8C33.3873 177.789 33.6966 177.773 34.0486 177.752V179C32.8326 179.16 31.942 179.064 31.3766 178.712C30.8113 178.349 30.5286 177.672 30.5286 176.68V172.344H28.9446V171H30.5286V169.176L31.9206 168.76V171H34.0486V172.344ZM39.8875 169.448C39.5035 169.128 39.2155 168.984 39.0235 169.016C38.8315 169.037 38.7355 169.309 38.7355 169.832H37.5675C37.5675 169.299 37.6368 168.877 37.7755 168.568C37.9248 168.248 38.1168 168.029 38.3515 167.912C38.5862 167.795 38.8475 167.768 39.1355 167.832C39.4342 167.896 39.7328 168.035 40.0315 168.248C40.4262 168.568 40.7142 168.717 40.8955 168.696C41.0875 168.664 41.1835 168.392 41.1835 167.88H42.3515C42.3515 168.413 42.2768 168.835 42.1275 169.144C41.9888 169.453 41.8022 169.667 41.5675 169.784C41.3435 169.901 41.0822 169.928 40.7835 169.864C40.4848 169.8 40.1862 169.661 39.8875 169.448ZM42.3675 171H43.7595V179H42.3675V177.624C41.6742 178.68 40.6662 179.208 39.3435 179.208C38.2128 179.208 37.2582 178.803 36.4795 177.992C35.6902 177.171 35.2955 176.173 35.2955 175C35.2955 173.837 35.6902 172.845 36.4795 172.024C37.2688 171.203 38.2235 170.792 39.3435 170.792C40.6662 170.792 41.6742 171.32 42.3675 172.376V171ZM39.5195 177.864C40.3302 177.864 41.0075 177.592 41.5515 177.048C42.0955 176.493 42.3675 175.811 42.3675 175C42.3675 174.189 42.0955 173.512 41.5515 172.968C41.0075 172.413 40.3302 172.136 39.5195 172.136C38.7195 172.136 38.0475 172.413 37.5035 172.968C36.9595 173.512 36.6875 174.189 36.6875 175C36.6875 175.811 36.9595 176.493 37.5035 177.048C38.0475 177.592 38.7195 177.864 39.5195 177.864ZM52.6205 177.992C51.8098 178.803 50.8125 179.208 49.6285 179.208C48.4445 179.208 47.4472 178.803 46.6365 177.992C45.8258 177.181 45.4205 176.184 45.4205 175C45.4205 173.816 45.8258 172.819 46.6365 172.008C47.4472 171.197 48.4445 170.792 49.6285 170.792C50.8125 170.792 51.8098 171.197 52.6205 172.008C53.4418 172.829 53.8525 173.827 53.8525 175C53.8525 176.173 53.4418 177.171 52.6205 177.992ZM49.6285 177.848C50.4285 177.848 51.1005 177.576 51.6445 177.032C52.1885 176.488 52.4605 175.811 52.4605 175C52.4605 174.189 52.1885 173.512 51.6445 172.968C51.1005 172.424 50.4285 172.152 49.6285 172.152C48.8392 172.152 48.1725 172.424 47.6285 172.968C47.0845 173.512 46.8125 174.189 46.8125 175C46.8125 175.811 47.0845 176.488 47.6285 177.032C48.1725 177.576 48.8392 177.848 49.6285 177.848ZM66.1175 167.8H67.5095V179H66.1175V177.624C65.4242 178.68 64.4162 179.208 63.0935 179.208C61.9628 179.208 61.0082 178.803 60.2295 177.992C59.4402 177.171 59.0455 176.173 59.0455 175C59.0455 173.837 59.4402 172.845 60.2295 172.024C61.0188 171.203 61.9735 170.792 63.0935 170.792C64.4162 170.792 65.4242 171.32 66.1175 172.376V167.8ZM63.2695 177.864C64.0802 177.864 64.7575 177.592 65.3015 177.048C65.8455 176.493 66.1175 175.811 66.1175 175C66.1175 174.189 65.8455 173.512 65.3015 172.968C64.7575 172.413 64.0802 172.136 63.2695 172.136C62.4695 172.136 61.7975 172.413 61.2535 172.968C60.7095 173.512 60.4375 174.189 60.4375 175C60.4375 175.811 60.7095 176.493 61.2535 177.048C61.7975 177.592 62.4695 177.864 63.2695 177.864ZM70.5945 175.64C70.7332 176.355 71.0585 176.909 71.5705 177.304C72.0825 177.699 72.7225 177.896 73.4905 177.896C74.5465 177.896 75.3145 177.507 75.7945 176.728L76.9785 177.4C76.1892 178.605 75.0158 179.208 73.4585 179.208C72.1998 179.208 71.1652 178.813 70.3545 178.024C69.5652 177.213 69.1705 176.205 69.1705 175C69.1705 173.784 69.5598 172.781 70.3385 171.992C71.1172 171.192 72.1252 170.792 73.3625 170.792C74.5358 170.792 75.4905 171.208 76.2265 172.04C76.9732 172.851 77.3465 173.843 77.3465 175.016C77.3465 175.229 77.3305 175.437 77.2985 175.64H70.5945ZM73.3625 172.104C72.6158 172.104 71.9972 172.317 71.5065 172.744C71.0158 173.16 70.7118 173.72 70.5945 174.424H75.9385C75.8212 173.656 75.5225 173.08 75.0425 172.696C74.5625 172.301 74.0025 172.104 73.3625 172.104ZM87.2986 172.344H85.1706V176.68C85.1706 176.989 85.2133 177.224 85.2986 177.384C85.3946 177.533 85.528 177.64 85.6986 177.704C85.88 177.768 86.104 177.8 86.3706 177.8C86.6373 177.789 86.9466 177.773 87.2986 177.752V179C86.0826 179.16 85.192 179.064 84.6266 178.712C84.0613 178.349 83.7786 177.672 83.7786 176.68V172.344H82.1946V171H83.7786V169.176L85.1706 168.76V171H87.2986V172.344ZM95.1644 171H96.5564V179H95.1644V177.624C94.471 178.68 93.463 179.208 92.1404 179.208C91.0097 179.208 90.055 178.803 89.2764 177.992C88.487 177.171 88.0924 176.173 88.0924 175C88.0924 173.837 88.487 172.845 89.2764 172.024C90.0657 171.203 91.0204 170.792 92.1404 170.792C93.463 170.792 94.471 171.32 95.1644 172.376V171ZM92.3164 177.864C93.127 177.864 93.8044 177.592 94.3484 177.048C94.8924 176.493 95.1644 175.811 95.1644 175C95.1644 174.189 94.8924 173.512 94.3484 172.968C93.8044 172.413 93.127 172.136 92.3164 172.136C91.5164 172.136 90.8444 172.413 90.3004 172.968C89.7564 173.512 89.4844 174.189 89.4844 175C89.4844 175.811 89.7564 176.493 90.3004 177.048C90.8444 177.592 91.5164 177.864 92.3164 177.864ZM100.057 172.344C100.516 171.352 101.348 170.856 102.553 170.856V172.312C101.871 172.28 101.284 172.461 100.793 172.856C100.303 173.251 100.057 173.885 100.057 174.76V179H98.6654V171H100.057V172.344ZM104.891 175.64C105.03 176.355 105.355 176.909 105.867 177.304C106.379 177.699 107.019 177.896 107.787 177.896C108.843 177.896 109.611 177.507 110.091 176.728L111.275 177.4C110.486 178.605 109.313 179.208 107.755 179.208C106.497 179.208 105.462 178.813 104.651 178.024C103.862 177.213 103.467 176.205 103.467 175C103.467 173.784 103.857 172.781 104.635 171.992C105.414 171.192 106.422 170.792 107.659 170.792C108.833 170.792 109.787 171.208 110.523 172.04C111.27 172.851 111.643 173.843 111.643 175.016C111.643 175.229 111.627 175.437 111.595 175.64H104.891ZM107.659 172.104C106.913 172.104 106.294 172.317 105.803 172.744C105.313 173.16 105.009 173.72 104.891 174.424H110.235C110.118 173.656 109.819 173.08 109.339 172.696C108.859 172.301 108.299 172.104 107.659 172.104ZM117.121 168.936C115.713 168.829 115.009 169.437 115.009 170.76V171H117.121V172.344H115.009V179H113.617V172.344H112.337V171H113.617V170.76C113.617 169.672 113.916 168.856 114.513 168.312C115.121 167.757 115.99 167.517 117.121 167.592V168.936ZM124.368 171H125.76V179H124.368V177.624C123.674 178.68 122.666 179.208 121.344 179.208C120.213 179.208 119.258 178.803 118.48 177.992C117.69 177.171 117.296 176.173 117.296 175C117.296 173.837 117.69 172.845 118.48 172.024C119.269 171.203 120.224 170.792 121.344 170.792C122.666 170.792 123.674 171.32 124.368 172.376V171ZM121.52 177.864C122.33 177.864 123.008 177.592 123.552 177.048C124.096 176.493 124.368 175.811 124.368 175C124.368 174.189 124.096 173.512 123.552 172.968C123.008 172.413 122.33 172.136 121.52 172.136C120.72 172.136 120.048 172.413 119.504 172.968C118.96 173.512 118.688 174.189 118.688 175C118.688 175.811 118.96 176.493 119.504 177.048C120.048 177.592 120.72 177.864 121.52 177.864ZM129.053 173.16C129.053 173.469 129.202 173.72 129.501 173.912C129.81 174.093 130.189 174.243 130.637 174.36C130.946 174.424 131.272 174.509 131.613 174.616C131.954 174.723 132.269 174.867 132.557 175.048C132.845 175.229 133.08 175.464 133.261 175.752C133.442 176.029 133.533 176.381 133.533 176.808C133.533 177.533 133.25 178.115 132.685 178.552C132.12 178.989 131.405 179.208 130.541 179.208C129.762 179.208 129.096 179.043 128.541 178.712C127.986 178.371 127.592 177.912 127.357 177.336L128.557 176.648C128.685 177.032 128.925 177.336 129.277 177.56C129.629 177.784 130.05 177.896 130.541 177.896C131 177.896 131.378 177.811 131.677 177.64C131.976 177.459 132.125 177.181 132.125 176.808C132.125 176.499 131.97 176.253 131.661 176.072C131.362 175.88 130.989 175.731 130.541 175.624C130.221 175.539 129.89 175.443 129.549 175.336C129.208 175.229 128.893 175.091 128.605 174.92C128.328 174.739 128.098 174.509 127.917 174.232C127.736 173.955 127.645 173.603 127.645 173.176C127.645 172.483 127.912 171.912 128.445 171.464C128.989 171.016 129.666 170.792 130.477 170.792C131.128 170.792 131.704 170.941 132.205 171.24C132.717 171.528 133.101 171.933 133.357 172.456L132.189 173.112C131.901 172.429 131.33 172.088 130.477 172.088C130.082 172.088 129.746 172.184 129.469 172.376C129.192 172.557 129.053 172.819 129.053 173.16ZM143.597 170.792C144.717 170.792 145.672 171.203 146.461 172.024C147.25 172.845 147.645 173.837 147.645 175C147.645 176.173 147.25 177.171 146.461 177.992C145.682 178.803 144.728 179.208 143.597 179.208C142.264 179.208 141.256 178.68 140.573 177.624V182.2H139.181V171H140.573V172.376C141.256 171.32 142.264 170.792 143.597 170.792ZM143.421 177.864C144.221 177.864 144.893 177.592 145.437 177.048C145.981 176.493 146.253 175.811 146.253 175C146.253 174.189 145.981 173.512 145.437 172.968C144.893 172.413 144.221 172.136 143.421 172.136C142.61 172.136 141.933 172.413 141.389 172.968C140.845 173.512 140.573 174.189 140.573 175C140.573 175.811 140.845 176.493 141.389 177.048C141.933 177.592 142.61 177.864 143.421 177.864ZM150.282 175.64C150.421 176.355 150.746 176.909 151.258 177.304C151.77 177.699 152.41 177.896 153.178 177.896C154.234 177.896 155.002 177.507 155.482 176.728L156.666 177.4C155.877 178.605 154.703 179.208 153.146 179.208C151.887 179.208 150.853 178.813 150.042 178.024C149.253 177.213 148.858 176.205 148.858 175C148.858 173.784 149.247 172.781 150.026 171.992C150.805 171.192 151.813 170.792 153.05 170.792C154.223 170.792 155.178 171.208 155.914 172.04C156.661 172.851 157.034 173.843 157.034 175.016C157.034 175.229 157.018 175.437 156.986 175.64H150.282ZM153.05 172.104C152.303 172.104 151.685 172.317 151.194 172.744C150.703 173.16 150.399 173.72 150.282 174.424H155.626C155.509 173.656 155.21 173.08 154.73 172.696C154.25 172.301 153.69 172.104 153.05 172.104ZM159.522 173.16C159.522 173.469 159.671 173.72 159.97 173.912C160.279 174.093 160.658 174.243 161.106 174.36C161.415 174.424 161.74 174.509 162.082 174.616C162.423 174.723 162.738 174.867 163.026 175.048C163.314 175.229 163.548 175.464 163.73 175.752C163.911 176.029 164.002 176.381 164.002 176.808C164.002 177.533 163.719 178.115 163.154 178.552C162.588 178.989 161.874 179.208 161.01 179.208C160.231 179.208 159.564 179.043 159.01 178.712C158.455 178.371 158.06 177.912 157.826 177.336L159.026 176.648C159.154 177.032 159.394 177.336 159.746 177.56C160.098 177.784 160.519 177.896 161.01 177.896C161.468 177.896 161.847 177.811 162.146 177.64C162.444 177.459 162.594 177.181 162.594 176.808C162.594 176.499 162.439 176.253 162.13 176.072C161.831 175.88 161.458 175.731 161.01 175.624C160.69 175.539 160.359 175.443 160.018 175.336C159.676 175.229 159.362 175.091 159.074 174.92C158.796 174.739 158.567 174.509 158.386 174.232C158.204 173.955 158.114 173.603 158.114 173.176C158.114 172.483 158.38 171.912 158.914 171.464C159.458 171.016 160.135 170.792 160.946 170.792C161.596 170.792 162.172 170.941 162.674 171.24C163.186 171.528 163.57 171.933 163.826 172.456L162.658 173.112C162.37 172.429 161.799 172.088 160.946 172.088C160.551 172.088 160.215 172.184 159.938 172.376C159.66 172.557 159.522 172.819 159.522 173.16ZM166.35 173.16C166.35 173.469 166.499 173.72 166.798 173.912C167.107 174.093 167.486 174.243 167.934 174.36C168.243 174.424 168.568 174.509 168.91 174.616C169.251 174.723 169.566 174.867 169.854 175.048C170.142 175.229 170.376 175.464 170.558 175.752C170.739 176.029 170.83 176.381 170.83 176.808C170.83 177.533 170.547 178.115 169.982 178.552C169.416 178.989 168.702 179.208 167.838 179.208C167.059 179.208 166.392 179.043 165.838 178.712C165.283 178.371 164.888 177.912 164.654 177.336L165.854 176.648C165.982 177.032 166.222 177.336 166.574 177.56C166.926 177.784 167.347 177.896 167.838 177.896C168.296 177.896 168.675 177.811 168.974 177.64C169.272 177.459 169.422 177.181 169.422 176.808C169.422 176.499 169.267 176.253 168.958 176.072C168.659 175.88 168.286 175.731 167.838 175.624C167.518 175.539 167.187 175.443 166.846 175.336C166.504 175.229 166.19 175.091 165.902 174.92C165.624 174.739 165.395 174.509 165.214 174.232C165.032 173.955 164.942 173.603 164.942 173.176C164.942 172.483 165.208 171.912 165.742 171.464C166.286 171.016 166.963 170.792 167.774 170.792C168.424 170.792 169 170.941 169.502 171.24C170.014 171.528 170.398 171.933 170.654 172.456L169.486 173.112C169.198 172.429 168.627 172.088 167.774 172.088C167.379 172.088 167.043 172.184 166.766 172.376C166.488 172.557 166.35 172.819 166.35 173.16ZM179.23 177.992C178.419 178.803 177.422 179.208 176.238 179.208C175.054 179.208 174.057 178.803 173.246 177.992C172.435 177.181 172.03 176.184 172.03 175C172.03 173.816 172.435 172.819 173.246 172.008C174.057 171.197 175.054 170.792 176.238 170.792C177.422 170.792 178.419 171.197 179.23 172.008C180.051 172.829 180.462 173.827 180.462 175C180.462 176.173 180.051 177.171 179.23 177.992ZM176.238 177.848C177.038 177.848 177.71 177.576 178.254 177.032C178.798 176.488 179.07 175.811 179.07 175C179.07 174.189 178.798 173.512 178.254 172.968C177.71 172.424 177.038 172.152 176.238 172.152C175.449 172.152 174.782 172.424 174.238 172.968C173.694 173.512 173.422 174.189 173.422 175C173.422 175.811 173.694 176.488 174.238 177.032C174.782 177.576 175.449 177.848 176.238 177.848ZM188.727 171H190.119V179H188.727V177.624C188.034 178.68 187.026 179.208 185.703 179.208C184.572 179.208 183.618 178.803 182.839 177.992C182.05 177.171 181.655 176.173 181.655 175C181.655 173.837 182.05 172.845 182.839 172.024C183.628 171.203 184.583 170.792 185.703 170.792C187.026 170.792 188.034 171.32 188.727 172.376V171ZM185.879 177.864C186.69 177.864 187.367 177.592 187.911 177.048C188.455 176.493 188.727 175.811 188.727 175C188.727 174.189 188.455 173.512 187.911 172.968C187.367 172.413 186.69 172.136 185.879 172.136C185.079 172.136 184.407 172.413 183.863 172.968C183.319 173.512 183.047 174.189 183.047 175C183.047 175.811 183.319 176.493 183.863 177.048C184.407 177.592 185.079 177.864 185.879 177.864ZM192.932 170.008C192.665 170.008 192.441 169.917 192.26 169.736C192.079 169.555 191.988 169.336 191.988 169.08C191.988 168.824 192.079 168.605 192.26 168.424C192.441 168.232 192.665 168.136 192.932 168.136C193.188 168.136 193.407 168.232 193.588 168.424C193.769 168.605 193.86 168.824 193.86 169.08C193.86 169.336 193.769 169.555 193.588 169.736C193.407 169.917 193.188 170.008 192.932 170.008ZM192.228 179V171H193.62V179H192.228ZM196.928 173.16C196.928 173.469 197.077 173.72 197.376 173.912C197.685 174.093 198.064 174.243 198.512 174.36C198.821 174.424 199.147 174.509 199.488 174.616C199.829 174.723 200.144 174.867 200.432 175.048C200.72 175.229 200.955 175.464 201.136 175.752C201.317 176.029 201.408 176.381 201.408 176.808C201.408 177.533 201.125 178.115 200.56 178.552C199.995 178.989 199.28 179.208 198.416 179.208C197.637 179.208 196.971 179.043 196.416 178.712C195.861 178.371 195.467 177.912 195.232 177.336L196.432 176.648C196.56 177.032 196.8 177.336 197.152 177.56C197.504 177.784 197.925 177.896 198.416 177.896C198.875 177.896 199.253 177.811 199.552 177.64C199.851 177.459 200 177.181 200 176.808C200 176.499 199.845 176.253 199.536 176.072C199.237 175.88 198.864 175.731 198.416 175.624C198.096 175.539 197.765 175.443 197.424 175.336C197.083 175.229 196.768 175.091 196.48 174.92C196.203 174.739 195.973 174.509 195.792 174.232C195.611 173.955 195.52 173.603 195.52 173.176C195.52 172.483 195.787 171.912 196.32 171.464C196.864 171.016 197.541 170.792 198.352 170.792C199.003 170.792 199.579 170.941 200.08 171.24C200.592 171.528 200.976 171.933 201.232 172.456L200.064 173.112C199.776 172.429 199.205 172.088 198.352 172.088C197.957 172.088 197.621 172.184 197.344 172.376C197.067 172.557 196.928 172.819 196.928 173.16Z" fill="white"/>
<path d="M23.184 129.736H9.744V137.704H22.8V144.04H9.744V157H3.12V123.4H23.184V129.736ZM48.1106 157L46.0946 150.952H32.7026L30.6866 157H23.5346L35.2946 123.4H43.5026L55.3106 157H48.1106ZM34.8146 144.76H44.0306L39.4226 131.032L34.8146 144.76ZM74.5091 157.672C69.4531 157.672 65.2771 155.992 61.9811 152.632C58.6851 149.304 57.0371 145.16 57.0371 140.2C57.0371 135.208 58.6851 131.064 61.9811 127.768C65.2771 124.408 69.4531 122.728 74.5091 122.728C76.0451 122.728 77.5171 122.92 78.9251 123.304C80.3651 123.656 81.7091 124.184 82.9571 124.888C84.2051 125.56 85.3251 126.392 86.3171 127.384C87.3411 128.344 88.2211 129.432 88.9571 130.648L83.2451 133.96C82.4131 132.424 81.2291 131.24 79.6931 130.408C78.1571 129.576 76.4291 129.16 74.5091 129.16C71.2451 129.16 68.6051 130.184 66.5891 132.232C64.6051 134.312 63.6131 136.968 63.6131 140.2C63.6131 143.4 64.6051 146.04 66.5891 148.12C68.6051 150.168 71.2451 151.192 74.5091 151.192C76.4291 151.192 78.1571 150.776 79.6931 149.944C81.2611 149.08 82.4451 147.912 83.2451 146.44L88.9571 149.752C88.2211 150.968 87.3411 152.072 86.3171 153.064C85.3251 154.024 84.2051 154.856 82.9571 155.56C81.7091 156.232 80.3651 156.744 78.9251 157.096C77.5171 157.48 76.0451 157.672 74.5091 157.672ZM93.0263 123.4H99.6503V157H93.0263V123.4ZM112.494 150.664H125.31V157H105.87V123.4H112.494V150.664ZM129.073 123.4H135.697V157H129.073V123.4ZM164.141 123.4V129.736H155.069V157H148.445V129.736H139.421V123.4H164.141ZM187.001 157L184.985 150.952H171.593L169.577 157H162.425L174.185 123.4H182.393L194.201 157H187.001ZM173.705 144.76H182.921L178.313 131.032L173.705 144.76ZM219.304 123.4V126.568H208.984V157H205.624V126.568H195.304V123.4H219.304ZM244.083 157L240.963 148.744H225.027L221.907 157H218.355L231.267 123.4H234.723L247.635 157H244.083ZM226.227 145.576H239.763L232.995 127.576L226.227 145.576ZM261.572 157.576C258.468 157.576 255.828 156.856 253.652 155.416C251.476 153.976 249.956 151.96 249.092 149.368L251.972 147.688C252.58 149.8 253.684 151.432 255.284 152.584C256.916 153.736 259.028 154.312 261.62 154.312C264.116 154.312 266.052 153.768 267.428 152.68C268.836 151.56 269.54 150.088 269.54 148.264C269.54 146.504 268.9 145.176 267.62 144.28C266.372 143.384 264.26 142.456 261.284 141.496C257.732 140.312 255.428 139.384 254.372 138.712C251.812 137.176 250.532 134.952 250.532 132.04C250.532 129.192 251.524 126.952 253.508 125.32C255.46 123.656 257.908 122.824 260.852 122.824C262.164 122.824 263.38 123 264.5 123.352C265.652 123.704 266.692 124.216 267.62 124.888C268.58 125.528 269.412 126.296 270.116 127.192C270.852 128.056 271.46 129.016 271.94 130.072L269.108 131.656C267.572 127.944 264.82 126.088 260.852 126.088C258.74 126.088 257.044 126.6 255.764 127.624C254.516 128.648 253.892 130.072 253.892 131.896C253.892 133.592 254.468 134.84 255.62 135.64C256.804 136.472 258.708 137.32 261.332 138.184L263.924 139.096C264.436 139.256 265.204 139.544 266.228 139.96C267.316 140.376 268.068 140.728 268.484 141.016C268.964 141.304 269.54 141.72 270.212 142.264C270.916 142.776 271.412 143.304 271.7 143.848C272.02 144.36 272.292 145 272.516 145.768C272.772 146.504 272.9 147.304 272.9 148.168C272.9 151.016 271.86 153.304 269.78 155.032C267.7 156.728 264.964 157.576 261.572 157.576ZM301.954 157H297.538L281.794 140.728V157H278.434V123.4H281.794V138.76L297.058 123.4H301.474L285.346 139.72L301.954 157ZM314.916 157.576C311.812 157.576 309.172 156.856 306.996 155.416C304.82 153.976 303.3 151.96 302.436 149.368L305.316 147.688C305.924 149.8 307.028 151.432 308.628 152.584C310.26 153.736 312.372 154.312 314.964 154.312C317.46 154.312 319.396 153.768 320.772 152.68C322.18 151.56 322.884 150.088 322.884 148.264C322.884 146.504 322.244 145.176 320.964 144.28C319.716 143.384 317.604 142.456 314.628 141.496C311.076 140.312 308.772 139.384 307.716 138.712C305.156 137.176 303.876 134.952 303.876 132.04C303.876 129.192 304.868 126.952 306.852 125.32C308.804 123.656 311.252 122.824 314.196 122.824C315.508 122.824 316.724 123 317.844 123.352C318.996 123.704 320.036 124.216 320.964 124.888C321.924 125.528 322.756 126.296 323.46 127.192C324.196 128.056 324.804 129.016 325.284 130.072L322.452 131.656C320.916 127.944 318.164 126.088 314.196 126.088C312.084 126.088 310.388 126.6 309.108 127.624C307.86 128.648 307.236 130.072 307.236 131.896C307.236 133.592 307.812 134.84 308.964 135.64C310.148 136.472 312.052 137.32 314.676 138.184L317.268 139.096C317.78 139.256 318.548 139.544 319.572 139.96C320.66 140.376 321.412 140.728 321.828 141.016C322.308 141.304 322.884 141.72 323.556 142.264C324.26 142.776 324.756 143.304 325.044 143.848C325.364 144.36 325.636 145 325.86 145.768C326.116 146.504 326.244 147.304 326.244 148.168C326.244 151.016 325.204 153.304 323.124 155.032C321.044 156.728 318.308 157.576 314.916 157.576Z" fill="white"/>
<path d="M58.6733 63.6667H45.4168V72.8329H58.6733V63.6667Z" fill="white"/>
<path d="M42.0838 47.0005H32.9177V60.333H42.0838V47.0005Z" fill="white"/>
<path d="M42.0838 76.166H32.9177V89.4985H42.0838V76.166Z" fill="white"/>
<path d="M92.5947 12H7.40831C5.4435 12 3.55917 12.7805 2.16984 14.1698C0.780516 15.5592 0 17.4435 0 19.4083L0 104.592C0 105.565 0.191622 106.528 0.563924 107.427C0.936226 108.326 1.48192 109.142 2.16984 109.83C2.85777 110.518 3.67445 111.064 4.57327 111.436C5.47209 111.808 6.43544 112 7.40831 112H92.5947C93.5675 112 94.5307 111.808 95.4293 111.436C96.328 111.064 97.1444 110.518 97.8321 109.83C98.5198 109.142 99.0652 108.325 99.4372 107.426C99.8091 106.528 100 105.564 100 104.592V19.4083C100 17.444 99.2199 15.5602 97.8312 14.1709C96.4426 12.7817 94.559 12.0008 92.5947 12V12ZM74.5849 45.3343C74.5841 45.7761 74.4082 46.1995 74.0959 46.5119C73.7835 46.8243 73.3601 47.0001 72.9183 47.0009H45.4169V60.3334H60.34C60.782 60.3334 61.2059 60.509 61.5184 60.8216C61.831 61.1341 62.0066 61.558 62.0066 62V74.4992C62.0066 74.9412 61.831 75.3651 61.5184 75.6777C61.2059 75.9902 60.782 76.1658 60.34 76.1658H45.4169V91.1679C45.4169 91.6099 45.2414 92.0338 44.9288 92.3464C44.6163 92.6589 44.1924 92.8345 43.7504 92.8345H31.2511C30.8091 92.8345 30.3852 92.6589 30.0727 92.3464C29.7602 92.0338 29.5846 91.6099 29.5846 91.1679V74.4992C29.5846 74.0572 29.7602 73.6333 30.0727 73.3208C30.3852 73.0083 30.8091 72.8327 31.2511 72.8327H42.0838V63.6666H31.2511C30.8091 63.6666 30.3852 63.491 30.0727 63.1784C29.7602 62.8659 29.5846 62.442 29.5846 62V45.3343C29.5846 44.8923 29.7602 44.4684 30.0727 44.1559C30.3852 43.8434 30.8091 43.6678 31.2511 43.6678H42.0838V32.8321C42.083 32.6127 42.1255 32.3953 42.2089 32.1924C42.2923 31.9895 42.415 31.8051 42.5698 31.6497C42.7246 31.4943 42.9086 31.371 43.1112 31.2869C43.3138 31.2027 43.531 31.1594 43.7504 31.1594H72.9183C73.3601 31.1602 73.7835 31.3361 74.0959 31.6484C74.4082 31.9608 74.5841 32.3842 74.5849 32.826V45.3343Z" fill="white"/>
<path d="M71.2516 34.4985H45.4168V43.6646H71.2516V34.4985Z" fill="white"/>
<path d="M88.3201 35.8908L88.3201 35.8908L115.926 8.50661C115.926 8.5066 115.926 8.50659 115.926 8.50658C117.234 7.20938 117.242 5.0975 115.945 3.78964C115.945 3.7896 115.945 3.78955 115.945 3.78951L114.652 2.48644L113.587 3.54278L114.652 2.48643C113.355 1.17848 111.243 1.17031 109.935 2.46743L109.935 2.46746L86.0006 26.21L76.5066 16.6394C75.2092 15.3314 73.0973 15.3233 71.7896 16.6204C71.7896 16.6204 71.7896 16.6204 71.7896 16.6204L70.4864 17.913L70.4864 17.913C69.1785 19.2104 69.1703 21.3223 70.4674 22.63L70.4675 22.6301L83.6031 35.8718C83.6031 35.8718 83.6031 35.8718 83.6031 35.8718C84.9005 37.1798 87.0124 37.1879 88.3201 35.8908Z" fill="#0ED984" stroke="white" stroke-width="3"/>
</svg>
